<?xml version="1.0" encoding="UTF-8"?>
<!DOCTYPE svg PUBLIC "-//W3C//DTD SVG 1.1//EN" "http://www.w3.org/Graphics/SVG/1.1/DTD/svg11.dtd">
<!-- Creator: CorelDRAW -->
<svg xmlns="http://www.w3.org/2000/svg" xml:space="preserve" width="21px" height="21px" version="1.1" shape-rendering="geometricPrecision" text-rendering="geometricPrecision" image-rendering="optimizeQuality" fill-rule="evenodd" clip-rule="evenodd"
viewBox="0 0 21 21"
 xmlns:xlink="http://www.w3.org/1999/xlink"
 xmlns:xodm="http://www.corel.com/coreldraw/odm/2003">
 <g id="Слой_x0020_1">
  <metadata id="CorelCorpID_0Corel-Layer"/>
  <path id="_01" fill="black" d="M10.5 0c-5.8,0 -10.5,4.7 -10.5,10.5 0,5.8 4.7,10.5 10.5,10.5 5.8,0 10.5,-4.7 10.5,-10.5 0,-5.8 -4.7,-10.5 -10.5,-10.5l0 0zm3.29 11l-4.54 4.54c-0.13,0.13 -0.31,0.21 -0.49,0.21 -0.39,0 -0.7,-0.32 -0.7,-0.7 0,-0.19 0.07,-0.37 0.2,-0.5l4.05 -4.05 -4.05 -4.05c-0.13,-0.13 -0.2,-0.31 -0.2,-0.49 0,-0.39 0.31,-0.7 0.7,-0.7 0.18,0 0.36,0.07 0.49,0.2l4.54 4.54c0.13,0.13 0.2,0.31 0.2,0.5 0,0.19 -0.07,0.37 -0.2,0.5l0 0z" data-name="01"/>
 </g>
</svg>
